<?xml version="1.0" encoding="UTF-8"?>
<svg id="svg8" xmlns="http://www.w3.org/2000/svg" version="1.1" xmlns:cc="http://creativecommons.org/ns#" xmlns:dc="http://purl.org/dc/elements/1.1/" xmlns:rdf="http://www.w3.org/1999/02/22-rdf-syntax-ns#" xmlns:sodipodi="http://sodipodi.sourceforge.net/DTD/sodipodi-0.dtd" xmlns:svg="http://www.w3.org/2000/svg" viewBox="0 0 28.3 28.3">
  <!-- Generator: Adobe Illustrator 29.8.1, SVG Export Plug-In . SVG Version: 2.1.1 Build 2)  -->
  <defs>
    <style>
      .st0 {
        fill: #fff;
      }
    </style>
  </defs>
  <sodipodi:namedview id="base" bordercolor="#666666" borderlayer="true" borderopacity="1.0" fit-margin-bottom="1" fit-margin-left="1" fit-margin-right="1" fit-margin-top="1" pagecolor="#c8c8c8" showgrid="false" showguides="true"/>
  <g>
    <path id="path1275" class="st0" d="M20.6,26.3c0-.4.3-.6.8-.6s.7.2.8.6h-1.5ZM22,27.3c-.1.3-.4.4-.7.4s-.8-.3-.8-.7h2.6c0-1.2-.7-1.9-1.8-1.9s-1.8.6-1.8,1.6.7,1.6,1.8,1.6,1.2-.2,1.5-.6l-.8-.5Z"/>
    <path id="path1279" class="st0" d="M9.1,26.3c0-.4.3-.6.8-.6s.7.2.8.6h-1.5ZM10.6,27.3c-.1.3-.4.4-.7.4s-.8-.3-.8-.7h2.6c0-1.2-.7-1.9-1.8-1.9s-1.8.6-1.8,1.6.7,1.6,1.8,1.6,1.2-.2,1.5-.6l-.8-.5Z"/>
    <rect id="rect1283" class="st0" x="6.8" y="24.4" width=".9" height="3.8"/>
    <path id="path1287" class="st0" d="M11.9,25.4h.9v.2c.3-.4.7-.5,1.2-.5s.9.2,1.1.5c.2.3.2.6.2,1v1.7h-.9v-1.5c0-.6-.1-.9-.7-.9s-.9.3-.9.9v1.5h-.9v-2.8Z"/>
    <path id="path1291" class="st0" d="M18.3,26.8c0,.5-.3.9-.9.9s-.9-.3-.9-.9.3-.9.9-.9.9.3.9.9ZM18.3,25.6c-.2-.3-.6-.4-1.1-.4-1,0-1.7.6-1.7,1.6s.7,1.6,1.7,1.6.8-.1,1.1-.4v.3h.9v-4.1l-.9.2v1.1Z"/>
    <path id="path1295" class="st0" d="M4.7,25.9c.5,0,.9.3.9.9s-.3.9-.9.9-.9-.3-.9-.9.3-.9.9-.9ZM3.8,24.4l-.9-.2v4.1h.9v-.3c.3.3.6.4,1.1.4,1,0,1.7-.7,1.7-1.6s-.7-1.6-1.7-1.6-.8.1-1.1.4v-1.1Z"/>
    <path id="path1299" class="st0" d="M23.4,28.2v-2.8h.9v.2c.3-.3.6-.5.9-.5s.2,0,.3,0v.8c0,0-.2,0-.3,0-.5,0-.9.4-.9,1v1.4h-.9Z"/>
  </g>
  <g>
    <path id="path1309" class="st0" d="M14.8,12.9c0-.9.5-1.8,1.2-2.4.7-.6,1.6-.9,2.6-.9s1.9.4,2.6.9c.7.6,1.2,1.4,1.2,2.4,0,1-.3,1.9-1,2.5-.7.7-1.7,1.1-2.8,1.1s-2.1-.4-2.8-1.1c-.7-.7-1.1-1.6-1-2.5h0Z"/>
    <path id="path1313" class="st0" d="M8.7,14.9c0,.4.1,1.1.3,1.7.4,1.2,1,2.3,1.9,3.3.9,1,2,1.8,3.3,2.4,1.3.6,2.8.9,4.3.9,1.5,0,3-.3,4.3-.9,1.3-.6,2.4-1.4,3.3-2.4.9-1,1.5-2.1,1.9-3.3.2-.6.3-1.2.4-1.8,0-.6,0-1.2,0-1.8-.2-1.2-.6-2.3-1.2-3.3-.6-.9-1.3-1.7-2.2-2.4h0S16,.4,16,.4c0,0,0,0,0,0-.6-.4-1.6-.4-2.2,0-.6.5-.7,1.2-.1,1.7h0s3.7,3,3.7,3H6.1s0,0,0,0c-.9,0-1.8.6-2,1.4-.2.8.4,1.4,1.4,1.4h0s5.7,0,5.7,0L1,15.7s0,0,0,0c-1,.7-1.3,2-.7,2.7.6.8,1.9.8,2.9,0l5.6-4.5s0,.6,0,1h0ZM23,16.9c-1.1,1.2-2.7,1.8-4.5,1.8-1.7,0-3.3-.7-4.5-1.8-.6-.6-1-1.2-1.2-1.9-.2-.7-.3-1.4-.3-2.1,0-.7.3-1.4.6-2,.3-.6.8-1.2,1.4-1.6,1.1-.9,2.5-1.4,4-1.4,1.5,0,2.9.5,4,1.4.6.5,1,1,1.4,1.6.3.6.6,1.3.6,2,0,.7,0,1.5-.3,2.1-.3.7-.7,1.4-1.2,1.9h0Z"/>
  </g>
</svg>