<?xml version="1.0" encoding="UTF-8"?>
<svg id="Layer_1" xmlns="http://www.w3.org/2000/svg" version="1.1" viewBox="0 0 50 50">
  <!-- Generator: Adobe Illustrator 29.8.1, SVG Export Plug-In . SVG Version: 2.1.1 Build 2)  -->
  <defs>
    <style>
      .st0 {
        fill: #fff;
      }
    </style>
  </defs>
  <path class="st0" d="M45.6,10.9L27.3.6c-1.4-.8-3.1-.8-4.5,0L4.4,10.9c-1.4.8-2.3,2.3-2.3,3.8v20.6c0,1.6.9,3.1,2.3,3.8l18.3,10.3c.7.4,1.5.6,2.3.6s1.6-.2,2.3-.6l18.3-10.3c1.4-.8,2.3-2.3,2.3-3.8V14.7c0-1.6-.9-3.1-2.3-3.8ZM25,38c-7.2,0-13-5.9-13-13s5.9-13,13-13,7.9,1.9,10.4,5.2l-4.8,2.8c-1.4-1.6-3.5-2.5-5.6-2.5-4.2,0-7.6,3.4-7.6,7.6s3.4,7.6,7.6,7.6,4.2-.9,5.6-2.5l4.8,2.8c-2.5,3.2-6.3,5.2-10.4,5.2ZM38,26.1h-2.2v2.2h-2.2v-2.2h-2.2v-2.2h2.2v-2.2h2.2v2.2h2.2v2.2ZM45.7,26.1h-2.2v2.2h-2.2v-2.2h-2.2v-2.2h2.2v-2.2h2.2v2.2h2.2v2.2Z"/>
</svg>