<?xml version="1.0" encoding="UTF-8"?>
<svg id="Layer_1" xmlns="http://www.w3.org/2000/svg" version="1.1" viewBox="0 0 2500 2438">
  <!-- Generator: Adobe Illustrator 29.8.1, SVG Export Plug-In . SVG Version: 2.1.1 Build 2)  -->
  <defs>
    <style>
      .st0, .st1 {
        fill: #fff;
      }

      .st1 {
        fill-rule: evenodd;
      }
    </style>
  </defs>
  <g>
    <path class="st0" d="M1813.3,0H686.7c-170.8,0-308.9,138.1-308.9,308.9v1083c0,170.8,138.1,308.9,308.9,308.9h1126.6c170.8,0,308.9-138.1,308.9-308.9V308.9C2122.2,138.1,1984.1,0,1813.3,0ZM1446.2,1201.5h-151.9c-5.1.7-10.2-2.9-11.6-8l-59.6-173h-270.4l-55.2,170.8c-1.5,6.5-7.3,10.9-13.8,10.2h-136.6c-8,0-10.2-4.4-8-13.1l234-673.8c2.2-7.3,4.4-15.3,7.3-24,2.9-15.3,4.4-31.3,4.4-47.2-.7-3.6,2.2-7.3,5.8-8h188.2c5.8,0,8.7,2.2,9.4,5.8l265.3,748.6c2.2,8,0,11.6-7.3,11.6ZM1693.4,1190.6c0,8-2.9,11.6-9.4,11.6h-142.5c-7.3,0-10.9-4.4-10.9-11.6v-559.7c0-7.3,2.9-10.2,9.4-10.2h143.9c6.5,0,9.4,3.6,9.4,10.2v559.7ZM1678.1,534.2c-16.7,17.4-41.4,26.9-66.1,25.4h0c-24,.7-47.2-8.7-64.7-25.4-16.7-18.2-25.4-42.2-24.7-66.9-.7-24.7,8.7-48,26.2-64.7,17.4-16.7,40.7-25.4,64.7-25.4s50.2,8.7,66.1,25.4c16,17.4,24.7,40.7,24,64.7.7,24.7-8,48.7-25.4,66.9Z"/>
    <path class="st0" d="M1143.2,758.1c-7.3-22.5-13.8-44.3-21.1-66.9-7.3-22.5-13.8-43.6-19.6-64.7-5.8-20.4-10.9-39.2-16-56.7h-1.5c-6.5,31.3-14.5,62.5-24.7,93.8-10.9,34.9-21.8,71.2-33.4,107.6-10.2,37.1-21.1,71.2-32,101.8h184.6c-4.4-15.3-10.2-33.4-16.7-52.3-6.5-19.6-13.1-40.7-19.6-62.5Z"/>
  </g>
  <path class="st1" d="M1003,2289.9l-31.1,144.7h-71.6l118.3-524.5h84.8l111.3,524.5h-72.4l-30.3-144.7h-108.9ZM1103.4,2231.6l-24.1-125.3c-7-35.8-14-82.5-19.4-119.8h-3.1c-5.4,38.1-13.2,86.4-20.2,119.8l-24.9,125.3h91.8,0ZM1487.9,1896.2v441.2c0,28.8,1.6,70.8,3.1,97.3h-63l-4.7-45.9h-2.3c-12.5,26.4-41.2,52.1-79.4,52.1-70,0-112.8-76.3-112.8-193.8s56.8-196.9,116.7-196.9,54.5,14,67.7,42.8h1.6v-196.9h73.1ZM1414.8,2200.5c0-7,0-15.6-.8-23.4-3.9-34.2-23.3-63.8-49.8-63.8-45.9,0-61.5,63.8-61.5,133.8s20.2,132.3,59.1,132.3,38.1-8.6,50.6-53.7c1.6-6.2,2.3-15.6,2.3-24.1v-101.2h0ZM1662.2,2440.9c-75.5,0-130-64.6-130-194.5s64.6-196.1,133.8-196.1,128.4,66.9,128.4,194.5-73.9,196.1-131.5,196.1h-.8,0ZM1664.5,2383.3c45.1,0,55.3-80.2,55.3-137.7s-10.1-137.7-56.8-137.7-57.6,80.9-57.6,137.7,10.9,137.7,58.4,137.7h.8ZM1838.5,1896.2h73.1v203.1h1.6c19.5-34.2,45.9-49,79.4-49,64.6,0,105.1,73.1,105.1,189.1s-55.3,201.5-117.5,201.5-58.4-20.2-74.7-53.7h-3.1l-3.9,47.5h-63c1.6-25.7,3.1-68.5,3.1-97.3v-441.2h0ZM1911.7,2300.8c0,8.6.8,17.1,3.1,23.4,11.7,45.9,34.2,55.3,49,55.3,43.6,0,59.9-57.6,59.9-135.4s-17.1-130.7-60.7-130.7-43.6,28.8-49,56c-1.6,7.8-2.3,17.9-2.3,25.7v105.8h0,0ZM2205.6,2260.4c.8,97.3,42.8,121.4,87.1,121.4s49-6.2,65.4-14l10.9,52.9c-22.6,11.7-56.8,17.9-90.3,17.9-94.9,0-144.7-71.6-144.7-188.3s56.8-200,135.4-200,115.2,75.5,115.2,170.4-.8,30.3-1.6,40.5l-177.4-.8h0ZM2315.3,2208.2c.8-66.9-22.6-102.7-51.3-102.7s-55.3,55.3-57.6,102.7h108.9Z"/>
  <path class="st1" d="M488,1911.6h218.5v523.1l-218.5-523.1ZM334.1,1911.6H115.5v523.1l218.7-523.1ZM411.1,2104.4l139.2,330.3h-91.2l-41.6-105.2h-101.9l95.5-225.1h0Z"/>
</svg>