<?xml version="1.0" encoding="UTF-8"?>
<svg id="Layer_1" xmlns="http://www.w3.org/2000/svg" version="1.1" viewBox="0 0 800 800">
  <!-- Generator: Adobe Illustrator 29.8.1, SVG Export Plug-In . SVG Version: 2.1.1 Build 2)  -->
  <defs>
    <style>
      .st0 {
        fill: #fff;
      }
    </style>
  </defs>
  <path class="st0" d="M327.1,424.4s-21,12.2,14.9,16.3c43.5,5,65.7,4.2,113.6-4.8,0,0,12.6,7.9,30.2,14.7-107.4,46-243.1-2.7-158.7-26.2M314,364.3s-23.5,17.4,12.4,21.1c46.4,4.8,83.1,5.2,146.6-7,0,0,8.8,8.9,22.6,13.8-129.9,38-274.5,3-181.6-27.9"/>
  <path class="st0" d="M424.7,262.4c26.5,30.5-7,57.9-7,57.9,0,0,67.2-34.7,36.3-78.1-28.8-40.5-50.9-60.6,68.7-130.1,0,0-187.9,46.9-98.1,150.3"/>
  <path class="st0" d="M566.7,468.8s15.5,12.8-17.1,22.7c-62,18.8-258.1,24.5-312.5.7-19.6-8.5,17.1-20.3,28.7-22.8,12-2.6,18.9-2.1,18.9-2.1-21.8-15.3-140.7,30.1-60.4,43.1,219,35.5,399.2-16,342.4-41.6M337.2,302s-99.7,23.7-35.3,32.3c27.2,3.6,81.4,2.8,131.9-1.4,41.3-3.5,82.7-10.9,82.7-10.9,0,0-14.6,6.2-25.1,13.4-101.3,26.6-296.9,14.2-240.6-13,47.6-23,86.4-20.4,86.4-20.4M516.1,402c103-53.5,55.4-104.9,22.1-98-8.1,1.7-11.8,3.2-11.8,3.2,0,0,3-4.7,8.8-6.8,65.7-23.1,116.3,68.2-21.2,104.3,0,0,1.6-1.4,2.1-2.7"/>
  <path class="st0" d="M454.1,0s57,57-54.1,144.7c-89.1,70.4-20.3,110.5,0,156.3-52-46.9-90.2-88.2-64.6-126.7C373,118,477.1,90.6,454.1,0"/>
  <path class="st0" d="M347.3,547c98.8,6.3,250.6-3.5,254.2-50.3,0,0-6.9,17.7-81.7,31.8-84.3,15.9-188.4,14-250.1,3.8,0,0,12.6,10.5,77.6,14.6"/>
  <path class="st0" d="M331.2,725.7c-9.3,8.1-19.2,12.6-28,12.6-12.6,0-19.4-7.6-19.4-19.7s7.3-22.7,36.6-22.7h10.8v29.8M356.9,754.7v-89.8c0-23-13.1-38.1-44.6-38.1s-34.6,4.5-47.7,10.4l3.8,15.9c10.3-3.8,23.7-7.3,36.8-7.3s26,7.3,26,22.5v11.4h-9.1c-44.2,0-64.1,17.1-64.1,42.9s13.1,34.8,37.9,34.8,27.8-6.6,38.8-16.2l2,13.6h20.2s0,0,0,0ZM442.7,754.7h-32.1l-38.6-125.7h28l24,77.2,5.3,23.2c12.1-33.6,20.7-67.6,25-100.4h27.3c-7.3,41.4-20.4,86.8-38.8,125.7M565.8,725.7c-9.3,8.1-19.2,12.6-28,12.6-12.6,0-19.4-7.6-19.4-19.7s7.3-22.7,36.6-22.7h10.9v29.8M591.5,754.7v-89.8c0-23-13.1-38.1-44.6-38.1s-34.6,4.5-47.7,10.4l3.8,15.9c10.3-3.8,23.7-7.3,36.8-7.3s26,7.3,26,22.5v11.4h-9.1c-44.2,0-64.1,17.1-64.1,42.9s13.1,34.8,37.8,34.8,27.8-6.6,38.9-16.2l2,13.6h20.2s0,0,0,0ZM229.8,776c-7.3,10.7-19.2,19.2-32.1,24l-12.7-14.9c9.9-5.1,18.3-13.2,22.3-20.9,3.4-6.8,4.8-15.5,4.8-36.4v-143.5h27.3v141.5c0,27.9-2.2,39.2-9.6,50.2"/>
</svg>