<?xml version="1.0" encoding="UTF-8"?>
<svg id="Layer_1" xmlns="http://www.w3.org/2000/svg" version="1.1" viewBox="0 0 256 256">
  <!-- Generator: Adobe Illustrator 29.8.1, SVG Export Plug-In . SVG Version: 2.1.1 Build 2)  -->
  <defs>
    <style>
      .st0 {
        fill: #fff;
      }
    </style>
  </defs>
  <path class="st0" d="M17.1,142.9c0-27.6,0-55.1,0-82.7,5.7.2,11.4,0,17.1.2,0,30.8,0,61.7,0,92.7-.2,8.6-.3,17.7-4.5,25.5-4.6,8.2-12.9,14-21.6,17.4-2.8-3-5.3-6.2-8.1-9.2H0c7.1-4.1,14.1-10,15.8-18.5,1.6-8.3,1.1-16.8,1.3-25.2h0Z"/>
  <path class="st0" d="M50.2,93.4c11.3-4.9,23.9-7.4,36.3-6,6.4.8,13,3.1,17.1,8.2,3.4,4.4,4.7,10,4.6,15.5v56.4h-12.7c-.4-2.8-.8-5.6-1.2-8.5-4.8,3.8-9.9,7.4-15.9,8.9-6.8,1.8-14.3,1.6-20.9-1-5.1-2.1-9.2-6.7-10.6-12.1-2.1-7.8-1-17,4.5-23.3,5-5.8,12.4-8.7,19.8-10,6.8-1.3,13.8-1.3,20.7-1.3-.2-5.3.8-11.1-2.2-15.8-2.4-3.6-6.9-5-11-5.3-9-.8-17.9,1.5-26.4,4.5-.8-3.4-1.6-6.7-2.4-10.1M71,132.3c-3.7,1.2-7.1,3.9-8.1,7.7-1.2,4.3-.8,9.3,1.9,12.9,2.7,3.5,7.6,4.4,11.8,3.9,5.9-.7,11-4,15.5-7.6,0-6.3,0-12.5,0-18.8-7.1,0-14.3-.4-21.1,1.9h0Z"/>
  <path class="st0" d="M197.8,93.4c11.4-4.9,24-7.5,36.5-6,6.2.8,12.6,3,16.7,7.9,3.9,4.6,5,10.8,5,16.6,0,18.6,0,37-.2,55.6-4.2-.2-8.4,0-12.6-.2-.4-2.9-.8-5.6-1.3-8.4-5.9,5-12.9,9.2-20.9,9.8-7.3.7-15.5-.3-21.3-5.5-6-5.5-7-14.5-5.5-22.2,1.4-7.1,6.7-12.8,13.1-16,10-4.9,21.4-5.1,32.3-5-.2-5.1.8-10.6-1.9-15.2-2-3.7-6.3-5.4-10.3-5.8-9.3-1-18.6,1.3-27.4,4.4-.8-3.4-1.6-6.7-2.3-10.1M218.4,132.4c-3.5,1.2-6.8,3.9-7.9,7.6-1.2,4.3-.8,9.3,1.8,13,2.8,3.6,7.7,4.4,12,3.9,5.8-.8,11.1-4,15.5-7.9-.2-6.1,0-12.3,0-18.6-7.1,0-14.4-.4-21.3,2h0Z"/>
  <path class="st0" d="M117.8,88.3h17.6c3.4,11.1,6.8,22.1,10.2,33.2,2,6.8,4.5,13.5,6,20.5.8,3.1,1.4,6.3,2.4,9.3,7.2-20.4,12.8-41.5,15.6-63h17.1c-5,27.2-12.8,54-24.5,79h-20.2c-8.1-26.4-16.2-52.7-24.3-79h0Z"/>
</svg>