<?xml version="1.0" encoding="UTF-8"?>
<svg id="Layer_1" xmlns="http://www.w3.org/2000/svg" version="1.1" viewBox="0 0 2500 2500">
  <!-- Generator: Adobe Illustrator 29.8.1, SVG Export Plug-In . SVG Version: 2.1.1 Build 2)  -->
  <defs>
    <style>
      .st0 {
        fill: #fff;
      }
    </style>
  </defs>
  <path class="st0" d="M0,0v2500h2500V0H0ZM1361.5,1949.9c0,243.3-142.6,354-350.8,354s-297-97.3-352.4-214.6l191.2-115.8c36.9,65.5,70.5,120.8,151.2,120.8s125.9-30.2,125.9-147.6v-798.8h234.9v802ZM1916.5,2304.3c-218.2,0-359.1-104-428.1-240.2l190.9-110.9c50.4,82.2,115.9,142.7,231.7,142.7s159.5-48.7,159.5-115.9-63.9-109.1-171-156l-58.7-25.2c-169.5-72.2-282.1-162.7-282.1-354s134.2-310.3,344-310.3,256.7,52,334.1,188.1l-182.9,117.5c-40.3-72.2-83.7-100.7-151.2-100.7s-112.4,43.7-112.4,100.7,43.7,99,144.4,142.7l58.7,25.2c199.6,85.6,312.3,172.9,312.3,369s-166.2,327.4-389.3,327.4Z"/>
</svg>