<?xml version="1.0" encoding="UTF-8"?>
<svg id="Layer_1" xmlns="http://www.w3.org/2000/svg" version="1.1" viewBox="0 0 850.4 850.4">
  <!-- Generator: Adobe Illustrator 29.8.1, SVG Export Plug-In . SVG Version: 2.1.1 Build 2)  -->
  <defs>
    <style>
      .st0 {
        fill: #fff;
      }
    </style>
  </defs>
  <path class="st0" d="M724.6,724.6h-126v-197.3c0-47.1-.8-107.6-65.5-107.6s-75.7,51.3-75.7,104.2v200.7h-126v-405.8h121v55.5h1.7c24.7-42.2,70.5-67.4,119.4-65.5,127.7,0,151.3,84,151.3,193.3v222.6ZM189.2,263.3c-40.4,0-73.1-32.7-73.1-73.1,0-40.4,32.7-73.1,73.1-73.1,40.4,0,73.1,32.7,73.1,73.1s-32.7,73.1-73.1,73.1h0M252.2,724.6h-126.1v-405.8h126.1v405.8ZM787.4,0H62.7C28.5-.3.4,27.1,0,61.4v727.7c.4,34.3,28.5,61.7,62.8,61.4h724.7c34.3.4,62.5-27,63-61.4V61.3C849.9,27,821.7-.4,787.4,0"/>
</svg>