<?xml version="1.0" encoding="UTF-8"?>
<svg id="Layer_1" xmlns="http://www.w3.org/2000/svg" version="1.1" viewBox="0 0 2500 2438">
  <!-- Generator: Adobe Illustrator 29.8.1, SVG Export Plug-In . SVG Version: 2.1.1 Build 2)  -->
  <defs>
    <style>
      .st0, .st1 {
        fill: #fff;
      }

      .st1 {
        fill-rule: evenodd;
      }
    </style>
  </defs>
  <g>
    <path class="st0" d="M1115.8,588.6c-26.8-10.9-55.9-15.2-85.6-14.5-18.9,0-35.5,0-49.3.7-14.5-.7-24.7,0-29.7.7h0v243.8c10.2.7,19.6,1.5,28.3,1.5h38.5c28.3,0,56.6-4.4,83.4-13.1,23.2-6.5,43.5-20.3,59.5-38.5,15.2-18.1,22.5-42.8,22.5-74.7.7-22.5-5.1-45-16.7-64.6-12.3-18.9-29.7-33.4-50.8-41.4Z"/>
    <path class="st0" d="M1812.2.2H687.8c-170.5,0-308.3,137.8-308.3,308.3v1081c0,170.5,137.8,308.3,308.3,308.3h1124.5c170.5,0,308.3-137.8,308.3-308.3V308.6C2120.6,138.1,1982.7.2,1812.2.2ZM1297.9,844c-29,40.6-69.6,71.1-116.8,88.5-49.3,18.1-103.7,24.7-163.2,24.7s-29,0-36.3-.7c-7.3-.7-17.4-.7-31.2-.7v232.9c.7,5.1-2.9,9.4-8,10.2h-140.7c-5.8,0-8.7-2.9-8.7-9.4V442.8c0-5.1,2.2-8,7.3-8,12.3,0,23.9,0,40.6-.7,17.4-.7,35.5-.7,55.1-1.5,19.6-.7,40.6-.7,63.1-1.5,22.5-.7,44.3-.7,66-.7,59.5,0,108.8,7.3,149.4,22.5,36.3,12.3,69.6,32.6,97.2,59.5,23.2,23.2,41.4,51.5,53,82.7,10.9,30.5,16.7,61.7,16.7,94.3,0,62.4-14.5,113.9-43.5,154.5ZM1795.6,758.4c0,5.8-3.6,8-11.6,8-26.1-.7-53,1.5-78.4,7.3-21,4.4-41.4,10.9-60.9,19.6-13.8,6.5-26.8,15.2-37,26.8v370c0,7.3-2.9,10.2-9.4,10.2h-142.9c-5.8.7-10.9-2.9-11.6-8.7v-404.8c0-17.4,0-35.5-.7-54.4-.7-18.9-.7-37.7-1.5-56.6,0-16.7-1.5-32.6-2.9-49.3-.7-3.6,1.5-7.3,5.1-8,0-.7,1.5-.7,2.2,0h0s127,0,127,0c7.3,0,13.1,5.1,15.2,11.6,2.2,5.8,3.6,11.6,4.4,18.1,1.5,7.3,2.9,15.2,3.6,22.5.7,8,1.5,16.7,1.5,26.1,21.8-25.4,47.9-46.4,77.6-62.4,33.4-18.9,71.8-28.3,110.3-28.3,5.1-.7,9.4,2.9,10.2,8v144.4Z"/>
  </g>
  <path class="st1" d="M1003.7,2287l-31.1,144.7h-71.6l118.3-524.5h84.8l111.3,524.5h-72.4l-30.3-144.7h-108.9ZM1104,2228.7l-24.1-125.3c-7-35.8-14-82.5-19.4-119.8h-3.1c-5.4,38.1-13.2,86.4-20.2,119.8l-24.9,125.3h91.8,0ZM1488.6,1893.3v441.2c0,28.8,1.6,70.8,3.1,97.3h-63l-4.7-45.9h-2.3c-12.5,26.4-41.2,52.1-79.4,52.1-70,0-112.8-76.3-112.8-193.8s56.8-196.9,116.7-196.9,54.5,14,67.7,42.8h1.6v-196.9h73.1ZM1415.4,2197.5c0-7,0-15.6-.8-23.4-3.9-34.2-23.3-63.8-49.8-63.8-45.9,0-61.5,63.8-61.5,133.8s20.2,132.3,59.1,132.3,38.1-8.6,50.6-53.7c1.6-6.2,2.3-15.6,2.3-24.1v-101.2h0ZM1662.8,2438c-75.5,0-130-64.6-130-194.5s64.6-196.1,133.8-196.1,128.4,66.9,128.4,194.5-73.9,196.1-131.5,196.1h-.8,0ZM1665.2,2380.4c45.1,0,55.3-80.2,55.3-137.7s-10.1-137.7-56.8-137.7-57.6,80.9-57.6,137.7,10.9,137.7,58.4,137.7h.8ZM1839.2,1893.3h73.1v203.1h1.6c19.5-34.2,45.9-49,79.4-49,64.6,0,105.1,73.1,105.1,189.1s-55.3,201.5-117.5,201.5-58.4-20.2-74.7-53.7h-3.1l-3.9,47.5h-63c1.6-25.7,3.1-68.5,3.1-97.3v-441.2h0ZM1912.3,2297.9c0,8.6.8,17.1,3.1,23.4,11.7,45.9,34.2,55.3,49,55.3,43.6,0,59.9-57.6,59.9-135.4s-17.1-130.7-60.7-130.7-43.6,28.8-49,56c-1.6,7.8-2.3,17.9-2.3,25.7v105.8h0,0ZM2206.3,2257.4c.8,97.3,42.8,121.4,87.1,121.4s49-6.2,65.4-14l10.9,52.9c-22.6,11.7-56.8,17.9-90.3,17.9-94.9,0-144.7-71.6-144.7-188.3s56.8-200,135.4-200,115.2,75.5,115.2,170.4-.8,30.3-1.6,40.5l-177.4-.8h0ZM2316,2205.3c.8-66.9-22.6-102.7-51.3-102.7s-55.3,55.3-57.6,102.7h108.9Z"/>
  <path class="st1" d="M488.7,1908.7h218.5v523.1l-218.5-523.1ZM334.8,1908.7H116.1v523.1l218.7-523.1ZM411.8,2101.4l139.2,330.3h-91.2l-41.6-105.2h-101.9l95.5-225.1h0Z"/>
</svg>