<?xml version="1.0" encoding="UTF-8"?>
<svg id="Layer_1" xmlns="http://www.w3.org/2000/svg" version="1.1" viewBox="0 0 2267.7 2267.7">
  <!-- Generator: Adobe Illustrator 29.8.1, SVG Export Plug-In . SVG Version: 2.1.1 Build 2)  -->
  <defs>
    <style>
      .st0 {
        fill: #fff;
      }
    </style>
  </defs>
  <g>
    <path class="st0" d="M2159.3,913.4c0-135.9-170.1-264.6-431-344.5,60.2-265.9,33.4-477.4-84.5-545.1-27.2-15.9-58.9-23.4-93.6-23.4v93.2c19.2,0,34.7,3.8,47.7,10.9,56.9,32.6,81.5,156.8,62.3,316.5-4.6,39.3-12.1,80.7-21.3,122.9-81.9-20.1-171.4-35.5-265.5-45.6-56.4-77.3-115-147.6-173.9-209,136.3-126.7,264.2-196.1,351.2-196.1V0c-115,0-265.5,81.9-417.6,224.1C980.8,82.8,830.4,1.7,715.4,1.7v93.2c86.5,0,214.9,69,351.2,194.8-58.5,61.5-117.1,131.3-172.7,208.6-94.5,10-183.9,25.5-265.9,46-9.6-41.8-16.7-82.4-21.7-121.2-19.6-159.7,4.6-283.9,61-316.9,12.5-7.5,28.8-10.9,48.1-10.9V2.1c-35.1,0-66.9,7.5-94.5,23.4-117.5,67.7-143.8,278.8-83.2,543.9-260,80.3-429.3,208.6-429.3,344.1s170.1,264.6,431,344.5c-60.2,265.9-33.4,477.4,84.5,545.1,27.2,15.9,58.9,23.4,94.1,23.4,115,0,265.5-81.9,417.6-224.1,152.2,141.3,302.7,222.4,417.6,222.4s66.9-7.5,94.5-23.4c117.5-67.7,143.8-278.8,83.2-543.9,259.2-79.9,428.5-208.6,428.5-344.1h0ZM1615,634.6c-15.5,53.9-34.7,109.5-56.4,165.1-17.1-33.4-35.1-66.9-54.8-100.3-19.2-33.4-39.7-66-60.2-97.8,59.4,8.8,116.6,19.6,171.4,33h0ZM1423.6,1079.8c-32.6,56.4-66,110-100.7,159.7-62.3,5.4-125.4,8.4-189,8.4s-126.3-2.9-188.1-7.9c-34.7-49.8-68.6-102.8-101.2-158.9-31.8-54.8-60.6-110.4-87-166.4,25.9-56,55.2-112,86.5-166.8,32.6-56.4,66-109.9,100.7-159.7,62.3-5.4,125.4-8.4,189-8.4s126.3,2.9,188.1,7.9c34.7,49.7,68.6,102.8,101.2,158.9,31.8,54.8,60.6,110.4,87,166.4-26.3,56-55.2,112-86.5,166.8ZM1558.6,1025.5c21.9,54.5,41.2,110,57.7,166.4-54.8,13.4-112.5,24.7-172.2,33.4,20.5-32.2,41-65.2,60.2-99.1,19.2-33.4,37.2-67.3,54.3-100.7h0ZM1134.7,1471.5c-38.9-40.1-77.8-84.9-116.2-133.8,37.6,1.7,76.1,2.9,115,2.9s78.2-.8,116.2-2.9c-35.9,46.6-74.3,91.3-115,133.8ZM823.7,1225.3c-59.4-8.8-116.6-19.6-171.4-33,15.5-53.9,34.7-109.5,56.4-165.1,17.1,33.4,35.1,66.9,54.8,100.3,19.6,33.4,39.7,66.1,60.2,97.8ZM1132.6,355.3c38.9,40.1,77.8,84.9,116.2,133.8-37.6-1.7-76.1-2.9-115-2.9s-78.2.8-116.2,2.9c35.9-46.6,74.3-91.3,115-133.8ZM823.2,601.6c-20.5,32.2-41,65.2-60.2,99.1-19.2,33.4-37.2,66.9-54.3,100.3-21.9-54.5-41.2-110-57.7-166.4,54.8-13,112.4-24.2,172.2-33ZM444.9,1125c-148-63.1-243.7-145.9-243.7-211.5s95.7-148.8,243.7-211.5c36-15.5,75.3-29.3,115.8-42.2,23.8,81.9,55.2,167.2,94.1,254.6-38.5,87-69.4,171.8-92.8,253.3-41.4-13-80.7-27.2-117.1-42.6h0ZM669.8,1722.4c-56.9-32.6-81.5-156.8-62.3-316.5,4.6-39.3,12.1-80.7,21.3-122.9,81.9,20.1,171.4,35.5,265.5,45.6,56.4,77.3,115,147.6,173.9,209-136.3,126.7-264.2,196.1-351.2,196.1-18.8-.4-34.7-4.2-47.2-11.3ZM1661.4,1403.8c19.6,159.7-4.6,283.9-61,316.9-12.5,7.5-28.8,10.9-48.1,10.9-86.5,0-214.9-69-351.2-194.8,58.5-61.5,117.1-131.3,172.7-208.6,94.5-10,183.9-25.5,265.9-46,9.6,42.2,17.1,82.8,21.7,121.7h0ZM1822.4,1125c-36,15.5-75.3,29.3-115.8,42.2-23.8-81.9-55.2-167.2-94.1-254.6,38.5-87,69.4-171.8,92.8-253.3,41.4,13,80.7,27.2,117.5,42.6,148,63.1,243.7,145.9,243.7,211.5-.4,65.6-96.2,148.8-244.1,211.5h0Z"/>
    <path class="st0" d="M1133.4,1104.5c105.5,0,191.1-85.5,191.1-191.1s-85.5-191-191.1-191-191,85.5-191,191,85.5,191.1,191,191.1Z"/>
  </g>
  <g>
    <path class="st0" d="M808,2147.8c16.1-6.1,28.6-15.4,37.6-27.8,9.1-12.4,13.6-27,13.6-43.7,0-26.3-8.2-46.3-24.5-60.1-16.2-13.8-39.5-20.7-69.7-20.7h-88.9v268.5h35.6v-108.6h63.1l58.3,108.6h38v-2.2l-63.1-114ZM766.2,2126.5h-54.4v-101.8s54.2,0,54.2,0c18.7.1,32.9,4.6,42.8,13.5,10,8.9,14.9,21.6,14.9,38.2s-5.2,27.4-15.7,36.5c-10.3,9.1-24.3,13.6-41.9,13.6Z"/>
    <path class="st0" d="M1064.3,2159.8c0-31.8-7.2-56.3-21.6-73.4-14.4-17.1-34.5-25.6-60.5-25.6s-30.6,4.4-44.3,13.3c-13.5,8.7-24.1,20.9-31.7,36.5-7.5,15.5-11.2,33.1-11.2,52.9v6.3c0,29.7,8.5,53.5,25.4,71.4,17,17.7,39,26.6,66,26.6h0c33.4,0,58.5-12.9,75.2-38.5l-20.8-16.2c-6.3,8.1-13.6,14.6-21.9,19.5-8.4,4.9-18.6,7.4-30.6,7.4s-31-6-42-18.1c-10.9-12.2-16.7-28.1-17.1-47.8h135.2v-14.2ZM1030.2,2146h-99.9c2.2-18.1,8-32.1,17.3-42,9.3-10.1,20.9-15.1,34.7-15.1h0c14.3,0,25.6,4.8,33.9,14.4,8.4,9.5,13,22.9,14,40.2v2.6Z"/>
    <path class="st0" d="M1255.9,2217.4v-91.8c-.5-20.2-7.3-36-20.3-47.4-13-11.6-31-17.3-54-17.3s-27.8,2.7-40,8.1c-12,5.4-21.6,12.8-28.8,22.1-7,9.2-10.5,18.8-10.5,28.8h34.3c0-8.7,4.1-16.2,12.4-22.3,8.2-6.2,18.4-9.2,30.6-9.2s24.4,3.6,31.5,10.7c7.1,7,10.7,16.5,10.7,28.4v15.7h-33.2c-28.6,0-50.9,5.8-66.8,17.3-15.7,11.4-23.6,27.5-23.6,48.3s6.3,31.2,18.8,42.4c12.7,11.1,28.8,16.6,48.5,16.6s40.9-8.2,56.8-24.7c1.2,10.1,2.8,17.1,4.8,21h35.8s0-3,0-3c-4.7-10.8-7-25.4-7-43.7ZM1221.8,2208.2c-4.3,8.9-11.3,16-20.8,21.6-9.6,5.5-19.7,8.3-30.4,8.3h0,0,0c-11.2,0-20.4-3-27.5-9-7.1-6-10.7-14.4-10.7-25.1,0-24.5,20.9-36.7,62.7-36.7h26.7v40.9Z"/>
    <path class="st0" d="M1389.4,2239.9c12.2,0,22.8-3.7,31.9-11.1,9.1-7.4,14.1-16.6,15.1-27.7h32.3c-.6,11.4-4.6,22.3-11.8,32.6-7.3,10.3-17,18.6-29.1,24.7-12,6.2-24.8,9.2-38.4,9.2-27.2,0-48.8-9-64.9-27.1-16-18.2-24-43-24-74.5v-5.7c0-19.4,3.6-36.7,10.7-51.8,7.1-15.1,17.3-26.9,30.6-35.2,13.4-8.4,29.2-12.5,47.4-12.5s40.9,6.7,55.7,20.1c14.9,13.4,22.8,30.8,23.8,52.2h-32.3c-1-12.9-5.9-23.5-14.8-31.7-8.7-8.4-19.5-12.5-32.5-12.5s-30.8,6.3-40.4,18.8c-9.5,12.4-14.2,30.4-14.2,54v6.5c0,23,4.7,40.7,14.2,53.1,9.5,12.4,23,18.6,40.6,18.6h0Z"/>
    <path class="st0" d="M1553.4,2016.2v48.3h37.3v26.4h-37.3v123.7c0,8,1.7,14,5,18.1,3.3,3.9,9,5.9,17,5.9s9.3-.7,16.2-2.2v27.7c-9,2.5-17.7,3.7-26.2,3.7-15.2,0-26.7-4.6-34.5-13.8-7.7-9.2-11.6-22.3-11.6-39.3v-123.7h-36.3v-26.4h36.3v-48.3h34.1Z"/>
  </g>
</svg>