<?xml version="1.0" encoding="UTF-8"?>
<svg id="Layer_1" xmlns="http://www.w3.org/2000/svg" version="1.1" viewBox="0 0 128 128">
  <!-- Generator: Adobe Illustrator 29.8.1, SVG Export Plug-In . SVG Version: 2.1.1 Build 2)  -->
  <defs>
    <style>
      .st0 {
        fill: #fff;
      }
    </style>
  </defs>
  <path class="st0" d="M105.9,66.3V22.2L67.7.1v17l15,8.6c.6.3.6,1.2,0,1.5l-17.9,10.3c-.5.3-1.2.3-1.7,0l-17.9-10.4c-.6-.3-.6-1.2,0-1.5l15-8.6V0L22.1,22.1v44.3-.2.2l14.7-8.4v-17.4c0-.6.7-1.1,1.3-.7l17.9,10.3c.5.3.9.9.9,1.5v20.6c0,.6-.7,1.1-1.3.7l-15-8.6-14.7,8.4,38.3,22.1,38.3-22.1-14.7-8.4-15,8.6c-.5.3-1.3-.1-1.3-.7v-20.6c0-.6.3-1.2.9-1.5l17.9-10.3c.5-.3,1.3.1,1.3.7v17.4l14.6,8.4Z"/>
  <path class="st0" d="M66.2,100.1v4.2h5.2v-4.2h-5.2ZM26.3,101.4v13.3c0,5.3,3.2,8.4,9.5,8.4s9.4-3.2,9.4-8.4v-13.3h-5.6v13.4c0,2.2-1.3,3.8-3.8,3.8s-3.9-1.5-3.9-3.7v-13.5h-5.6ZM75.4,101.4v5.1h-2.1v4.2h2.1v7.7c0,3.5,2.1,4.5,5.1,4.4,1.4,0,2.4,0,2.8-.2v-3.7c-.2,0-.7,0-1.1,0-1.1,0-1.8-.3-1.8-1.6v-6.6h2.9v-4.2h-2.9v-5.1h-5ZM57.9,106c-2.2,0-3.8.9-5,2.7h0v-2.2h-4.9v16.2h5.2v-9c0-2,1.1-3.4,2.8-3.4s2.5,1.2,2.5,2.9v9.4h5.2v-10.5c0-3.6-2.1-6.1-5.6-6.1h0ZM66.2,106.5v16.2h5.2v-16.2h-5.2ZM84.7,106.5l4.8,12.5c.7,1.7,1,2.7,1,3.4,0,1.1-.6,1.7-2.1,1.7h-1.7v4h3.4c3.3,0,4.8-1.3,6.1-5.1l5.6-16.4h-5.2l-2.1,6.9c-.5,1.6-.9,3.7-.9,3.7h0s-.5-2.2-1-3.7l-2.2-6.9h-5.5Z"/>
</svg>